:SAMPLES-PER-SECOND 30
:FULLY-SPECIFIED
:DEGREES
1233
root  -29.6406 24.7669 6.6027 68.9364 76.4615 175.016
RightUpLeg  46.7816 15.6634 -30.9641
RightLeg  83.1029 0.786665 5.79566
RightFoot  -24.2738 -0.413833 -2.20718
RightToes  3.49245e-010 0 -3.6325e-017
Spine  155.555 -25.3924 -6.56149
Spine1  -0.0132741 -28.2388 1.01288
HEad  -26.3813 -2.63064 -4.05385
LeftShoulder1  -0.189047 -4.97641 12.2112
LeftArm  -70.5816 -27.8928 -18.3922
LeftForeArm  10.8278 -74.3102 -47.2547
LeftHand  -0.21779 0.496856 5.18884
RightShoulder  -0.425838 0.981148 -20.555
RightArm  -71.9089 20.0833 6.31199
RightForeArm  -17.2587 71.9651 42.1436
RightHand  -0.469515 2.5743 -6.97622
LeftUpLeg  46.0688 -5.52587 0.960939
LeftLeg  76.0825 -0.31325 -0.185261
LeftFoot  -14.4953 0.0458602 -1.50566
LeftToes  -2.21735e-009 9.83027e-011 -4.04511e-011
1234
root  -29.1303 23.1879 6.32466 52.3186 76.0665 172.559
RightUpLeg  58.0988 23.6015 -25.3538
RightLeg  86.8428 0.400577 5.26175
RightFoot  -26.0484 -0.295533 -0.920653
RightToes  3.49245e-010 0 -3.6325e-017
Spine  169.305 -47.0694 -16.5638
Spine1  9.45327 -53.6266 -12.1328
HEad  -26.1662 -1.99197 -2.97346
LeftShoulder1  -0.284124 -5.06693 13.4604
LeftArm  -71.6203 -27.0589 -17.5629
LeftForeArm  9.79107 -74.1935 -46.9135
LeftHand  -0.23434 0.859562 5.952
RightShoulder  -0.214424 -0.647514 -18.5732
RightArm  -72.4503 22.0975 6.30574
RightForeArm  -13.4577 72.5677 43.8772
RightHand  -0.33368 1.78367 -5.60061
LeftUpLeg  58.2533 -4.69003 -0.829909
LeftLeg  79.8777 -0.212024 0.392316
LeftFoot  -15.8608 0.0378065 -1.44034
LeftToes  -2.21735e-009 9.83027e-011 -4.04511e-011
1235
root  -28.5933 21.658 6.0318 37.5247 75.6422 170.137
RightUpLeg  68.6809 29.2948 -18.4273
RightLeg  91.0015 0.0468076 4.93694
RightFoot  -27.6835 -0.170026 0.127198
RightToes  3.49245e-010 0 -3.6325e-017
Spine  -155.105 -42.755 -9.76583
Spine1  29.9258 -49.8975 -28.6422
HEad  -26.1609 -1.45808 -2.89058
LeftShoulder1  -0.285011 -5.20042 13.4046
LeftArm  -72.1363 -26.7729 -16.418
LeftForeArm  8.56477 -73.9967 -46.2285
LeftHand  -0.272025 0.327112 6.26959
RightShoulder  -0.187551 -1.12167 -18.9489
RightArm  -72.6248 22.0842 6.821
RightForeArm  -12.5616 72.9668 45.2854
RightHand  -0.407255 1.21066 -7.27598
LeftUpLeg  68.1731 -3.42177 -2.0984
LeftLeg  83.9207 -0.201788 0.933061
LeftFoot  -17.036 0.0279301 -1.50495
LeftToes  -2.21735e-009 9.83027e-011 -4.04511e-011
1236
root  -28.108 20.3186 5.72695 29.5074 76.0785 170.673
RightUpLeg  76.5134 31.429 -12.0935
RightLeg  94.9616 -0.260027 4.6954
RightFoot  -29.2021 -0.0402376 1.00437
RightToes  3.49245e-010 0 -3.6325e-017
Spine  -98.8596 85.6236 70.7868
Spine1  6.61087 85.5028 15.9751
HEad  -26.7986 -1.31945 -3.19864
LeftShoulder1  -0.358072 -5.5111 14.2138
LeftArm  -73.2419 -25.9201 -16.2366
LeftForeArm  6.26307 -73.6806 -45.281
LeftHand  -0.258547 0.872074 6.5799
RightShoulder  -0.23487 -0.898348 -20.2006
RightArm  -72.8717 21.3925 7.11291
RightForeArm  -14.5434 72.7531 44.695
RightHand  -0.451482 1.54284 -7.7466
LeftUpLeg  73.9294 -3.06259 -2.85186
LeftLeg  88.4314 -0.279938 1.63397
LeftFoot  -18.217 0.0339604 -1.24614
LeftToes  -2.21735e-009 9.83027e-011 -4.04511e-011
1237
root  -27.762 19.3747 5.45436 26.3099 76.1881 170.838
RightUpLeg  79.2259 32.2981 -8.67223
RightLeg  98.202 -0.524078 4.72165
RightFoot  -30.5717 0.12229 1.95263
RightToes  3.49245e-010 0 -3.6325e-017
Spine  -123.585 69.0122 42.7302
Spine1  2.64737 66.3273 7.3138
HEad  -27.2362 -1.87334 -3.7464
LeftShoulder1  -0.340286 -5.51074 13.9841
LeftArm  -74.0893 -26.6147 -15.5908
LeftForeArm  4.54839 -73.036 -42.9144
LeftHand  -0.218496 1.21891 5.97964
RightShoulder  -0.319533 -0.183285 -20.9202
RightArm  -73.1341 19.9698 5.76548
RightForeArm  -17.6334 71.9532 42.1539
RightHand  -0.399063 2.44434 -6.09551
LeftUpLeg  75.1296 -2.42175 -3.41153
LeftLeg  92.188 -0.442871 2.38856
LeftFoot  -19.4845 0.0153479 -1.42738
LeftToes  -2.21735e-009 9.83027e-011 -4.04511e-011
1238
root  -27.4953 18.7444 5.2119 24.4536 76.6794 168.868
RightUpLeg  78.6176 32.2872 -6.7952
RightLeg  100.804 -0.715006 4.61781
RightFoot  -31.9462 0.256403 2.60439
RightToes  3.49245e-010 0 -3.6325e-017
Spine  -123.733 68.2097 43.2015
Spine1  2.70148 66.1004 7.96856
HEad  -28.3455 -2.4848 -4.07043
LeftShoulder1  -0.381941 -5.45372 14.5486
LeftArm  -75.0174 -27.0931 -15.5976
LeftForeArm  3.76512 -72.7684 -42.0452
LeftHand  -0.246432 0.907904 6.33642
RightShoulder  -0.383582 0.54978 -20.6377
RightArm  -72.9517 18.5543 3.78667
RightForeArm  -21.166 71.5911 41.3023
RightHand  -0.467651 2.34866 -7.24226
LeftUpLeg  73.7771 -2.253 -3.0712
LeftLeg  95.2212 -0.646783 2.95999
LeftFoot  -20.9292 -0.0112252 -1.6283
LeftToes  -2.21735e-009 9.83027e-011 -4.04511e-011
1239
root  -27.0758 18.0981 5.03269 22.007 77.0897 168.21
RightUpLeg  80.6165 32.2665 -3.98869
RightLeg  103.262 -0.866243 4.43406
RightFoot  -33.461 0.448151 3.46151
RightToes  3.49245e-010 0 -3.6325e-017
Spine  -128.639 64.9469 37.8544
Spine1  0.304962 61.8683 5.70314
HEad  -29.2353 -1.80984 -4.50745
LeftShoulder1  -0.403252 -5.19479 14.9693
LeftArm  -75.7224 -26.5594 -15.0632
LeftForeArm  3.11207 -72.7315 -42.0279
LeftHand  -0.217653 0.888085 5.57788
RightShoulder  -0.421595 0.701792 -21.2941
RightArm  -72.4914 18.2883 5.05158
RightForeArm  -21.6767 71.8619 42.201
RightHand  -0.518407 1.43286 -8.93531
LeftUpLeg  74.4941 -2.31193 -3.11052
LeftLeg  98.1146 -0.855944 3.25222
LeftFoot  -22.4066 -0.0638226 -2.04408
LeftToes  -2.21735e-009 9.83027e-011 -4.04511e-011
1240
root  -26.722 17.8998 4.89098 21.795 77.1335 166.03
RightUpLeg  79.3376 32.3585 -3.34015
RightLeg  104.655 -0.931868 4.27862
RightFoot  -34.9795 0.665744 4.31835
RightToes  3.49245e-010 0 -3.6325e-017
Spine  -120.629 68.6659 47.6208
Spine1  -0.879239 66.8006 6.08209
HEad  -29.549 -1.36213 -5.26318
LeftShoulder1  -0.370026 -5.15742 14.5545
LeftArm  -75.6799 -26.2432 -13.7204
LeftForeArm  2.25191 -72.8411 -42.5885
LeftHand  -0.249148 1.2947 6.94539
RightShoulder  -0.400775 0.74649 -20.6027
RightArm  -72.2012 18.8907 4.99933
RightForeArm  -21.3589 71.6928 41.6378
RightHand  -0.422787 1.49946 -7.30306
LeftUpLeg  72.7323 -2.22431 -2.5792
LeftLeg  99.8108 -1.00045 3.44303
LeftFoot  -23.9795 -0.121014 -2.39849
LeftToes  -2.21735e-009 9.83027e-011 -4.04511e-011
1241
root  -26.2573 17.8397 4.84739 21.8552 76.2851 165.887
RightUpLeg  80.8917 33.0425 -2.35155
RightLeg  105.344 -0.949068 4.17143
RightFoot  -36.7562 0.996361 5.52787
RightToes  3.49245e-010 0 -3.6325e-017
Spine  -116.744 72.855 55.7153
Spine1  -1.10829 71.522 4.79046
HEad  -30.4589 -0.804506 -5.83497
LeftShoulder1  -0.37793 -4.9311 14.7944
LeftArm  -76.2539 -26.1705 -12.7589
LeftForeArm  1.53102 -72.7743 -42.4628
LeftHand  -0.27188 1.20566 7.4323
RightShoulder  -0.422748 0.884327 -20.827
RightArm  -71.8088 18.3573 6.10707
RightForeArm  -20.1025 72.1835 43.146
RightHand  -0.396029 2.17126 -6.25667
LeftUpLeg  73.1337 -1.48924 -2.87405
LeftLeg  100.619 -1.07823 3.55929
LeftFoot  -25.1919 -0.181381 -2.73208
LeftToes  -2.21735e-009 9.83027e-011 -4.04511e-011
1242
root  -25.754 18.0253 4.8892 20.0698 75.2855 162.758
RightUpLeg  81.7531 33.5574 -1.58594
RightLeg  105.615 -0.707355 3.33914
RightFoot  -38.485 1.31949 6.55828
RightToes  3.49245e-010 0 -3.6325e-017
Spine  -108.481 40.9464 26.889
Spine1  -14.4524 32.2526 12.0979
HEad  -31.4525 -0.652317 -6.32112
LeftShoulder1  -0.429896 -4.97462 15.4648
LeftArm  -76.3391 -26.0567 -12.014
LeftForeArm  2.24744 -72.7619 -42.2934
LeftHand  -0.195583 1.73818 6.05258
RightShoulder  -0.372281 0.868795 -19.5765
RightArm  -71.2837 18.0072 5.95537
RightForeArm  -20.1675 72.403 43.9163
RightHand  -0.461502 2.27236 -7.19803
LeftUpLeg  73.4606 -0.78905 -2.66131
LeftLeg  100.532 -0.978447 3.1333
LeftFoot  -26.638 -0.321628 -3.58841
LeftToes  -2.21735e-009 9.83027e-011 -4.04511e-011
1243
root  -25.3181 18.5705 4.93156 27.9045 76.0805 166.235
RightUpLeg  79.4783 31.7226 -4.09732
RightLeg  104.379 -0.349523 2.36876
RightFoot  -39.2922 1.56947 7.38215
RightToes  3.49245e-010 0 -3.6325e-017
Spine  -118.613 -80.9488 -89.1025
Spine1  142.411 -69.915 -152.856
HEad  -32.2211 -0.617653 -7.0315
LeftShoulder1  -0.503048 -5.32593 16.1875
LeftArm  -76.0047 -26.0479 -11.1712
LeftForeArm  1.48118 -72.5007 -41.4749
LeftHand  -0.188427 1.59481 5.59558
RightShoulder  -0.356471 1.28074 -18.3118
RightArm  -70.5501 16.9342 5.20899
RightForeArm  -20.6804 72.2087 43.2773
RightHand  -0.459042 2.85425 -6.68148
LeftUpLeg  71.3415 -2.22263 -3.21237
LeftLeg  100.241 -0.919282 2.93394
LeftFoot  -28.5012 -0.445174 -4.084
LeftToes  -2.21735e-009 9.83027e-011 -4.04511e-011
